<?xml version="1.0" encoding="UTF-8"?>
<!DOCTYPE svg PUBLIC "-//W3C//DTD SVG 1.1//EN" "http://www.w3.org/Graphics/SVG/1.1/DTD/svg11.dtd">
<!-- Creator: CorelDRAW 2019 (64-Bit) -->
<svg xmlns="http://www.w3.org/2000/svg" xml:space="preserve" width="4.10875in" height="1.87568in" version="1.1" style="shape-rendering:geometricPrecision; text-rendering:geometricPrecision; image-rendering:optimizeQuality; fill-rule:evenodd; clip-rule:evenodd"
viewBox="0 0 822.82 375.63"
 xmlns:xlink="http://www.w3.org/1999/xlink">
 <defs>
  <style type="text/css">
   <![CDATA[
    .fil0 {fill:#1BB3B7;fill-rule:nonzero}
   ]]>
  </style>
 </defs>
 <g id="Layer_x0020_1">
  <metadata id="CorelCorpID_0Corel-Layer"/>
  <g id="_2493102650096">
   <path class="fil0" d="M241.38 285.98c2.46,0 4.63,0.82 6.35,2.54 1.79,1.72 2.61,3.81 2.61,6.28 0,2.54 -0.82,4.71 -2.61,6.42 -1.72,1.79 -3.88,2.69 -6.35,2.69l-124.99 0c-10.31,0 -20.4,1.57 -30.03,4.71 -9.71,3.14 -18.68,7.62 -26.75,13.37 -8.07,5.75 -15.17,12.7 -21.37,20.77 -6.13,7.99 -10.91,16.96 -14.42,26.74 -0.75,1.87 -1.87,3.36 -3.36,4.48 -1.57,1.12 -3.29,1.64 -5.23,1.64 -1.12,0 -2.17,-0.3 -3.06,-0.9 -2.39,-0.75 -4.03,-2.24 -5.08,-4.48 -1.05,-2.24 -1.2,-4.56 -0.45,-6.87 4.11,-11.43 9.71,-21.74 16.81,-31.08 7.1,-9.34 15.46,-17.56 25.1,-24.58 3.66,-2.62 7.4,-5.01 11.21,-7.1 3.73,-2.09 7.69,-4.03 11.8,-5.83 -13.75,-5.68 -26.22,-13.97 -37.43,-24.95 -10.98,-11.06 -19.35,-23.68 -25.25,-37.73 -5.9,-14.12 -8.89,-28.99 -8.89,-44.6 0,-15.47 2.99,-30.26 8.89,-44.45 5.9,-14.12 14.27,-26.67 25.25,-37.65 11.06,-11.06 23.68,-19.57 37.73,-25.4 14.12,-5.83 28.91,-8.74 44.52,-8.74 15.09,0 29.36,2.69 42.96,8.07 13.52,5.38 25.77,13.22 36.76,23.46 1.72,1.72 2.61,3.81 2.69,6.35 0.08,2.46 -0.67,4.56 -2.24,6.35 -1.79,1.87 -3.88,2.84 -6.27,2.91 -2.39,0.07 -4.56,-0.75 -6.42,-2.54 -9.19,-8.74 -19.57,-15.39 -31.08,-19.87 -11.58,-4.56 -23.68,-6.8 -36.38,-6.8 -13.52,0 -26.3,2.61 -38.25,7.77 -12.03,5.16 -22.41,12.25 -31.3,21.14 -8.89,8.89 -15.99,19.27 -21.14,31.15 -5.15,11.88 -7.77,24.65 -7.77,38.18 0,13.6 2.62,26.37 7.77,38.32 5.15,11.95 12.25,22.41 21.14,31.3 8.89,8.89 19.27,15.99 31.3,21.14 11.95,5.15 24.73,7.77 38.25,7.77l124.99 0zm128.94 17.93l-132.9 0c-2.46,0 -4.56,-0.82 -6.35,-2.54 -1.72,-1.72 -2.61,-3.81 -2.61,-6.35 0,-2.46 0.9,-4.63 2.61,-6.35 1.79,-1.79 3.89,-2.69 6.35,-2.69l132.9 0c4.93,0 9.56,-0.97 13.97,-2.84 4.41,-1.87 8.14,-4.48 11.36,-7.77 3.21,-3.29 5.75,-7.1 7.7,-11.35 1.87,-4.33 2.84,-8.97 2.84,-13.9l0 -169.44c0,-2.47 0.9,-4.56 2.62,-6.35 1.79,-1.72 3.88,-2.62 6.35,-2.62 2.47,0 4.56,0.9 6.35,2.62 1.72,1.79 2.62,3.88 2.62,6.35l0 169.58c0,7.47 -1.42,14.42 -4.26,20.92 -2.84,6.5 -6.65,12.18 -11.5,16.96 -4.78,4.78 -10.46,8.67 -17.03,11.5 -6.57,2.84 -13.6,4.26 -20.99,4.26zm-60.35 38.66c0,-2.59 0.45,-4.95 1.4,-7.2 0.96,-2.25 2.25,-4.22 3.88,-5.85 1.63,-1.63 3.54,-2.93 5.73,-3.88 2.24,-0.97 4.61,-1.41 7.14,-1.41 2.53,0 4.89,0.45 7.08,1.41 2.19,0.96 4.09,2.26 5.73,3.88 1.67,1.64 3,3.59 3.99,5.85 0.98,2.24 1.46,4.61 1.46,7.2 0,2.47 -0.47,4.85 -1.46,7.08 -0.98,2.21 -2.32,4.09 -3.99,5.73 -1.64,1.61 -3.54,2.92 -5.73,3.88 -2.19,0.95 -4.55,1.41 -7.08,1.41 -2.53,0 -4.9,-0.44 -7.14,-1.41 -2.2,-0.94 -4.1,-2.25 -5.73,-3.88 -1.63,-1.63 -2.93,-3.54 -3.88,-5.73 -0.96,-2.24 -1.4,-4.61 -1.4,-7.08zm422.3 -241.94c9.34,9.34 16.51,19.95 21.44,31.9 5,12.03 7.47,24.58 7.47,37.88l0 35.04c0,13.3 -2.47,25.85 -7.47,37.88 -4.93,11.95 -12.1,22.56 -21.44,31.9 -9.34,9.34 -19.95,16.44 -31.97,21.37 -11.95,4.86 -24.58,7.32 -37.88,7.32l-194.39 0 0 -294.94c0,-2.47 0.9,-4.56 2.62,-6.35 1.79,-1.72 3.88,-2.61 6.35,-2.61 2.47,0 4.56,0.9 6.35,2.61 1.72,1.79 2.62,3.89 2.62,6.35l0 136.56c5.83,-11.13 12.77,-21.22 20.84,-30.26 6.13,-6.87 12.78,-12.92 19.87,-18.3 7.17,-5.3 14.72,-9.86 22.56,-13.67 16.81,-7.7 34.22,-11.58 52.37,-11.58l61.26 0c13.15,0 25.7,2.47 37.58,7.47 11.88,4.93 22.49,12.1 31.82,21.44zm10.98 69.7c0,-11.06 -2.09,-21.52 -6.35,-31.38 -4.26,-9.86 -10.01,-18.38 -17.33,-25.7 -7.25,-7.25 -15.84,-13.07 -25.7,-17.26 -9.86,-4.26 -20.32,-6.35 -31.45,-6.35l-60.81 0c-15.91,0 -30.93,3.36 -44.9,10.16 -14.04,6.8 -26.3,16.06 -36.83,27.87 -10.46,11.8 -18.75,25.63 -24.8,41.31 -6.05,15.76 -9.11,32.57 -9.11,50.5l0 66.49 176.46 0c11.13,0 21.59,-2.09 31.45,-6.35 9.86,-4.18 18.45,-10.01 25.7,-17.26 7.32,-7.32 13.07,-15.84 17.33,-25.55 4.26,-9.79 6.35,-20.32 6.35,-31.53l0 -34.96zm70.6 133.58c-2.46,0 -4.56,-0.9 -6.35,-2.62 -1.72,-1.79 -2.62,-3.88 -2.62,-6.35l0 -277.01c0,-2.46 0.9,-4.56 2.62,-6.35 1.79,-1.72 3.88,-2.61 6.35,-2.61 2.47,0 4.56,0.9 6.35,2.61 1.72,1.79 2.61,3.89 2.61,6.35l0 277.01c0,2.47 -0.9,4.56 -2.61,6.35 -1.79,1.72 -3.89,2.62 -6.35,2.62z"/>
   <path class="fil0" d="M375.53 366.66c8.25,0 20.35,-3.32 21.69,-19.63l-13.36 0c-0.99,4.93 -3.5,7.35 -8.43,7.35 -7.08,0 -9.86,-5.29 -9.86,-11.84 0,-6.55 2.78,-12.01 9.86,-12.01 4.75,0 7.44,2.24 8.43,7.26l13.36 0c-1.7,-16.5 -13.63,-19.54 -21.69,-19.54 -11.39,0 -23.76,6.63 -23.76,24.3 0,17.66 12.37,24.12 23.76,24.12z"/>
   <path class="fil0" d="M398.07 342.61c0,-3.44 0.6,-6.57 1.87,-9.56 1.27,-2.99 2.99,-5.6 5.16,-7.77 2.17,-2.17 4.71,-3.88 7.62,-5.15 2.99,-1.27 6.13,-1.87 9.49,-1.87 3.36,0 6.5,0.6 9.41,1.87 2.91,1.27 5.45,2.99 7.62,5.15 2.24,2.17 3.96,4.78 5.3,7.77 1.27,2.99 1.94,6.13 1.94,9.56 0,3.29 -0.67,6.42 -1.94,9.41 -1.35,2.91 -3.06,5.45 -5.3,7.62 -2.17,2.17 -4.71,3.88 -7.62,5.15 -2.91,1.27 -6.05,1.87 -9.41,1.87 -3.36,0 -6.5,-0.6 -9.49,-1.87 -2.91,-1.27 -5.45,-2.99 -7.62,-5.15 -2.17,-2.17 -3.89,-4.71 -5.16,-7.62 -1.27,-2.99 -1.87,-6.13 -1.87,-9.41zm24.21 13.07c7.3,0 13.22,-5.92 13.22,-13.22 0,-7.3 -5.92,-13.22 -13.22,-13.22 -7.3,0 -13.22,5.92 -13.22,13.22 0,7.3 5.92,13.22 13.22,13.22z"/>
   <path class="fil0" d="M447.35 363.38m51.86 -23.55l0 23.55 13.23 0 0 -26.77c0,-10.56 -5.81,-15.97 -13.79,-15.97 -7.5,0 -12.26,5.49 -12.98,9.6 -1.94,-6.37 -6.77,-9.6 -12.58,-9.6 -6.94,0 -11.37,5.56 -12.02,9.68l-0.48 0 0 -8.87 -13.23 0 0 41.94 13.23 0 0 -23.55c0,-5.97 3.06,-8.31 6.61,-8.31 3.55,0 6.05,2.34 6.05,8.31l0 23.55 13.23 0 0 -23.55c0,-5.97 3.07,-8.31 6.61,-8.31 3.55,0 6.13,2.34 6.13,8.31z"/>
  </g>
 </g>
</svg>
